<svg width="114" height="140" viewBox="0 0 114 140" fill="none" xmlns="http://www.w3.org/2000/svg">
<rect y="16" width="114" height="124" rx="8" fill="white"/>
<path d="M69.6325 86L46.894 67V48H36.788V70.3778C34.938 71.3344 33.5068 72.7643 32.7073 74.455C31.9077 76.1456 31.7824 78.0068 32.35 79.7617C32.9177 81.5166 34.1479 83.0716 35.8578 84.1955C37.5678 85.3195 39.6661 85.9523 41.841 86H72.159C74.3339 85.9523 76.4322 85.3195 78.1422 84.1955C79.8521 83.0716 81.0823 81.5166 81.65 79.7617C82.2176 78.0068 82.0923 76.1456 81.2927 74.455C80.4932 72.7643 79.062 71.3344 77.212 70.3778V48H67.106V67L57 75.4444M46.894 64.8889H67.106" stroke="black" stroke-width="1.5" stroke-linecap="round" stroke-linejoin="round"/>
<path d="M15.9343 115V105.06H22.5983V105.928H16.9143V109.386H20.1903C21.2823 109.386 22.0896 109.643 22.6123 110.156C23.1349 110.66 23.3963 111.318 23.3963 112.13C23.3963 112.662 23.2796 113.147 23.0463 113.586C22.8223 114.015 22.4769 114.361 22.0103 114.622C21.5529 114.874 20.9743 115 20.2743 115H15.9343ZM16.9143 114.132H20.1623C20.7036 114.132 21.1376 114.034 21.4643 113.838C21.7909 113.642 22.0289 113.39 22.1783 113.082C22.3276 112.765 22.4023 112.438 22.4023 112.102C22.4023 111.766 22.3369 111.453 22.2063 111.164C22.0756 110.865 21.8423 110.627 21.5063 110.45C21.1796 110.263 20.7176 110.17 20.1203 110.17H16.9143V114.132ZM30.5131 115.14C29.8784 115.14 29.3138 114.995 28.8191 114.706C28.3338 114.417 27.9418 114.02 27.6431 113.516C27.3538 113.003 27.1858 112.424 27.1391 111.78H25.6831V115H24.7311V107.706H25.6831V110.94H27.1391C27.1951 110.268 27.3724 109.68 27.6711 109.176C27.9698 108.672 28.3618 108.28 28.8471 108C29.3418 107.72 29.8971 107.58 30.5131 107.58C31.2318 107.58 31.8524 107.748 32.3751 108.084C32.8978 108.42 33.3038 108.873 33.5931 109.442C33.8824 110.011 34.0271 110.655 34.0271 111.374C34.0271 112.111 33.8778 112.765 33.5791 113.334C33.2898 113.894 32.8791 114.337 32.3471 114.664C31.8244 114.981 31.2131 115.14 30.5131 115.14ZM30.5131 114.3C31.0171 114.3 31.4604 114.174 31.8431 113.922C32.2258 113.67 32.5198 113.325 32.7251 112.886C32.9398 112.447 33.0471 111.943 33.0471 111.374C33.0471 110.767 32.9351 110.245 32.7111 109.806C32.4964 109.367 32.1978 109.027 31.8151 108.784C31.4324 108.541 30.9984 108.42 30.5131 108.42C30.0371 108.42 29.6124 108.546 29.2391 108.798C28.8658 109.041 28.5764 109.386 28.3711 109.834C28.1658 110.273 28.0631 110.786 28.0631 111.374C28.0631 111.962 28.1658 112.48 28.3711 112.928C28.5858 113.367 28.8798 113.707 29.2531 113.95C29.6264 114.183 30.0464 114.3 30.5131 114.3ZM38.6516 115.14C38.1196 115.14 37.6296 115.042 37.1816 114.846C36.7429 114.641 36.3556 114.361 36.0196 114.006C35.6929 113.651 35.4362 113.245 35.2496 112.788C35.0722 112.331 34.9836 111.845 34.9836 111.332C34.9836 110.641 35.1376 110.011 35.4456 109.442C35.7536 108.873 36.1829 108.42 36.7336 108.084C37.2842 107.748 37.9189 107.58 38.6376 107.58C39.3189 107.58 39.9209 107.739 40.4436 108.056C40.9662 108.364 41.3536 108.784 41.6056 109.316L40.6816 109.61C40.4762 109.237 40.1869 108.947 39.8136 108.742C39.4496 108.527 39.0436 108.42 38.5956 108.42C38.1102 108.42 37.6669 108.546 37.2656 108.798C36.8642 109.05 36.5422 109.395 36.2996 109.834C36.0662 110.273 35.9496 110.772 35.9496 111.332C35.9496 111.883 36.0709 112.382 36.3136 112.83C36.5562 113.278 36.8782 113.637 37.2796 113.908C37.6809 114.169 38.1242 114.3 38.6096 114.3C38.9269 114.3 39.2302 114.244 39.5196 114.132C39.8182 114.02 40.0749 113.871 40.2896 113.684C40.5136 113.488 40.6629 113.278 40.7376 113.054L41.6756 113.334C41.5449 113.679 41.3256 113.992 41.0176 114.272C40.7189 114.543 40.3642 114.757 39.9536 114.916C39.5522 115.065 39.1182 115.14 38.6516 115.14ZM44.8512 115V108.56H42.2472V107.706H48.4072V108.56H45.8032V115H44.8512ZM49.549 115V107.706H53.903V108.56H50.501V115H49.549ZM54.5089 112.9C54.5089 112.443 54.6395 112.051 54.9009 111.724C55.1622 111.388 55.5215 111.131 55.9789 110.954C56.4455 110.767 56.9822 110.674 57.5889 110.674C57.9435 110.674 58.3122 110.702 58.6949 110.758C59.0775 110.814 59.4182 110.898 59.7169 111.01V110.394C59.7169 109.778 59.5349 109.288 59.1709 108.924C58.8069 108.56 58.3029 108.378 57.6589 108.378C57.2669 108.378 56.8795 108.453 56.4969 108.602C56.1235 108.742 55.7315 108.952 55.3209 109.232L54.9569 108.56C55.4329 108.233 55.8995 107.991 56.3569 107.832C56.8142 107.664 57.2809 107.58 57.7569 107.58C58.6529 107.58 59.3622 107.837 59.8849 108.35C60.4075 108.863 60.6689 109.573 60.6689 110.478V113.852C60.6689 113.983 60.6969 114.081 60.7529 114.146C60.8089 114.202 60.8975 114.235 61.0189 114.244V115C60.9162 115.009 60.8275 115.019 60.7529 115.028C60.6782 115.037 60.6222 115.037 60.5849 115.028C60.3515 115.019 60.1742 114.944 60.0529 114.804C59.9315 114.664 59.8662 114.515 59.8569 114.356L59.8429 113.824C59.5162 114.244 59.0915 114.571 58.5689 114.804C58.0462 115.028 57.5142 115.14 56.9729 115.14C56.5062 115.14 56.0815 115.042 55.6989 114.846C55.3255 114.641 55.0315 114.37 54.8169 114.034C54.6115 113.689 54.5089 113.311 54.5089 112.9ZM59.3949 113.46C59.4975 113.329 59.5769 113.203 59.6329 113.082C59.6889 112.961 59.7169 112.853 59.7169 112.76V111.696C59.3995 111.575 59.0682 111.481 58.7229 111.416C58.3869 111.351 58.0462 111.318 57.7009 111.318C57.0195 111.318 56.4689 111.453 56.0489 111.724C55.6289 111.995 55.4189 112.363 55.4189 112.83C55.4189 113.101 55.4889 113.357 55.6289 113.6C55.7689 113.833 55.9742 114.029 56.2449 114.188C56.5155 114.337 56.8329 114.412 57.1969 114.412C57.6542 114.412 58.0789 114.323 58.4709 114.146C58.8722 113.969 59.1802 113.74 59.3949 113.46ZM61.8858 115.042V114.174C62.1378 114.174 62.3618 114.109 62.5578 113.978C62.7538 113.838 62.9264 113.605 63.0758 113.278C63.2344 112.951 63.3604 112.503 63.4538 111.934C63.5471 111.355 63.6078 110.623 63.6358 109.736L63.7198 107.706H68.4518V115H67.4998V108.56H64.5598L64.5318 109.82C64.4944 110.828 64.4151 111.673 64.2938 112.354C64.1724 113.026 63.9998 113.558 63.7758 113.95C63.5611 114.342 63.2951 114.622 62.9778 114.79C62.6604 114.958 62.2964 115.042 61.8858 115.042ZM70.4025 115V107.706H71.3545V110.282H73.2445C74.0752 110.282 74.7005 110.497 75.1205 110.926C75.5498 111.346 75.7645 111.901 75.7645 112.592C75.7645 113.04 75.6712 113.446 75.4845 113.81C75.2978 114.174 75.0225 114.463 74.6585 114.678C74.3038 114.893 73.8558 115 73.3145 115H70.4025ZM71.3545 114.244H73.1885C73.5712 114.244 73.8792 114.169 74.1125 114.02C74.3458 113.861 74.5185 113.661 74.6305 113.418C74.7425 113.166 74.7985 112.895 74.7985 112.606C74.7985 112.326 74.7472 112.069 74.6445 111.836C74.5512 111.593 74.3832 111.402 74.1405 111.262C73.9072 111.113 73.5805 111.038 73.1605 111.038H71.3545V114.244ZM78.9324 115V108.56H76.3284V107.706H82.4884V108.56H79.8844V115H78.9324ZM86.7943 115.14C86.2716 115.14 85.7863 115.042 85.3383 114.846C84.8903 114.641 84.503 114.365 84.1763 114.02C83.8496 113.665 83.593 113.259 83.4063 112.802C83.229 112.345 83.1403 111.855 83.1403 111.332C83.1403 110.651 83.2943 110.025 83.6023 109.456C83.9196 108.887 84.3536 108.434 84.9043 108.098C85.455 107.753 86.0803 107.58 86.7803 107.58C87.499 107.58 88.1243 107.753 88.6563 108.098C89.1976 108.443 89.6223 108.901 89.9303 109.47C90.2383 110.03 90.3923 110.646 90.3923 111.318C90.3923 111.393 90.3923 111.467 90.3923 111.542C90.3923 111.607 90.3876 111.659 90.3783 111.696H84.1343C84.181 112.219 84.3256 112.685 84.5683 113.096C84.8203 113.497 85.1423 113.819 85.5343 114.062C85.9356 114.295 86.3696 114.412 86.8363 114.412C87.3123 114.412 87.7603 114.291 88.1803 114.048C88.6096 113.805 88.9083 113.488 89.0763 113.096L89.9023 113.32C89.753 113.665 89.5243 113.978 89.2163 114.258C88.9083 114.538 88.5443 114.757 88.1243 114.916C87.7136 115.065 87.2703 115.14 86.7943 115.14ZM84.1063 111.01H89.4963C89.459 110.478 89.3143 110.011 89.0623 109.61C88.8196 109.209 88.4976 108.896 88.0963 108.672C87.7043 108.439 87.2703 108.322 86.7943 108.322C86.3183 108.322 85.8843 108.439 85.4923 108.672C85.1003 108.896 84.7783 109.213 84.5263 109.624C84.2836 110.025 84.1436 110.487 84.1063 111.01ZM95.4451 115.14C94.8384 115.14 94.2924 114.981 93.8071 114.664C93.3311 114.347 92.9531 113.955 92.6731 113.488V117.982H91.7211V107.706H92.5751V109.12C92.8644 108.663 93.2518 108.294 93.7371 108.014C94.2224 107.725 94.7404 107.58 95.2911 107.58C95.7951 107.58 96.2571 107.687 96.6771 107.902C97.0971 108.107 97.4611 108.387 97.7691 108.742C98.0771 109.097 98.3151 109.503 98.4831 109.96C98.6604 110.408 98.7491 110.875 98.7491 111.36C98.7491 112.041 98.6091 112.671 98.3291 113.25C98.0584 113.819 97.6758 114.277 97.1811 114.622C96.6864 114.967 96.1078 115.14 95.4451 115.14ZM95.1791 114.3C95.5804 114.3 95.9398 114.221 96.2571 114.062C96.5744 113.894 96.8451 113.67 97.0691 113.39C97.3024 113.11 97.4798 112.797 97.6011 112.452C97.7224 112.097 97.7831 111.733 97.7831 111.36C97.7831 110.968 97.7131 110.595 97.5731 110.24C97.4424 109.885 97.2511 109.573 96.9991 109.302C96.7471 109.031 96.4578 108.817 96.1311 108.658C95.8044 108.499 95.4498 108.42 95.0671 108.42C94.8244 108.42 94.5724 108.467 94.3111 108.56C94.0498 108.653 93.7978 108.789 93.5551 108.966C93.3218 109.134 93.1258 109.325 92.9671 109.54C92.8084 109.755 92.7104 109.983 92.6731 110.226V112.466C92.8224 112.811 93.0231 113.124 93.2751 113.404C93.5271 113.675 93.8164 113.894 94.1431 114.062C94.4791 114.221 94.8244 114.3 95.1791 114.3Z" fill="#605855"/>
<rect x="41" width="32" height="32" rx="16" fill="#333333"/>
<path d="M56.3803 15.988C56.3803 16.8 56.3196 17.5233 56.1983 18.158C56.0769 18.7927 55.8809 19.334 55.6103 19.782C55.3489 20.2207 55.0036 20.5567 54.5743 20.79C54.1543 21.0233 53.6456 21.14 53.0483 21.14C52.3016 21.14 51.6809 20.9347 51.1863 20.524C50.7009 20.1133 50.3369 19.5253 50.0943 18.76C49.8609 17.9853 49.7443 17.0613 49.7443 15.988C49.7443 14.9053 49.8516 13.9813 50.0663 13.216C50.2903 12.4507 50.6449 11.8673 51.1303 11.466C51.6156 11.0553 52.2549 10.85 53.0483 10.85C53.7949 10.85 54.4156 11.0553 54.9103 11.466C55.4049 11.8673 55.7736 12.4507 56.0163 13.216C56.2589 13.9813 56.3803 14.9053 56.3803 15.988ZM50.9763 15.988C50.9763 16.9027 51.0416 17.6633 51.1723 18.27C51.3123 18.8767 51.5316 19.334 51.8303 19.642C52.1383 19.9407 52.5443 20.09 53.0483 20.09C53.5523 20.09 53.9536 19.9407 54.2523 19.642C54.5603 19.3433 54.7843 18.8907 54.9243 18.284C55.0643 17.668 55.1343 16.9027 55.1343 15.988C55.1343 15.0733 55.0643 14.3173 54.9243 13.72C54.7843 13.1133 54.5603 12.6607 54.2523 12.362C53.9536 12.054 53.5523 11.9 53.0483 11.9C52.5443 11.9 52.1383 12.054 51.8303 12.362C51.5316 12.6607 51.3123 13.1133 51.1723 13.72C51.0416 14.3173 50.9763 15.0733 50.9763 15.988ZM61.9 21H60.696V14.014C60.696 13.7433 60.696 13.5147 60.696 13.328C60.7053 13.1413 60.7147 12.9687 60.724 12.81C60.7333 12.642 60.7427 12.4693 60.752 12.292C60.6027 12.4413 60.4673 12.5673 60.346 12.67C60.2247 12.7727 60.0707 12.9033 59.884 13.062L58.82 13.93L58.176 13.104L60.878 11.004H61.9V21Z" fill="white"/>
</svg>
