<svg width="114" height="141" viewBox="0 0 114 141" fill="none" xmlns="http://www.w3.org/2000/svg">
<rect y="16" width="114" height="124.037" rx="8" fill="white"/>
<path d="M47.4416 48C47.5568 48.032 47.6719 48.0845 47.7883 48.0913C50.4945 48.2408 53.2042 48.3447 55.9059 48.5445C58.2206 48.7157 60.533 48.9508 62.8362 49.2419C65.0841 49.5261 66.3739 51.0613 66.3762 53.3053C66.3808 56.5743 66.3543 59.8444 66.3842 63.1134C66.4084 65.6758 66.4176 68.2417 66.5812 70.7973C66.7274 73.079 67.0614 75.3493 67.3389 77.6207C67.4978 78.9219 67.7063 80.2174 67.9032 81.514C67.9297 81.6909 67.9884 81.8781 68.0828 82.0288C68.6644 82.9522 69.2563 83.8687 69.8528 84.783C70.1903 85.3012 69.9196 86.01 69.3243 86.0237C68.3396 86.0465 67.3481 86.0488 66.3693 85.9586C65.5321 85.881 64.8837 85.3925 64.4473 84.678C63.625 83.3345 62.6427 82.1269 61.4612 81.0757C61.0903 80.7447 60.7449 80.3851 60.3994 80.0267C59.3284 78.9162 59.28 77.2737 60.4155 76.2384C61.0385 75.6711 61.0892 75.1495 60.9245 74.3973C60.3303 71.6853 59.4931 69.0464 58.6075 66.4189C58.3599 65.6827 58.2056 64.9145 58.0075 64.1623C57.9833 64.0687 57.9511 63.9786 57.8947 63.7959C57.6874 64.3883 57.4835 64.8917 57.3327 65.4099C56.4932 68.2828 55.664 71.158 54.8383 74.0355C54.7957 74.1839 54.7957 74.354 54.8165 74.508C55.0249 76.0033 55.2322 77.4985 55.4648 78.9892C55.5109 79.2848 55.6168 79.5907 55.7723 79.8453C56.3089 80.723 56.8778 81.5813 57.4398 82.4442C57.6171 82.717 57.6632 82.9944 57.5089 83.2843C57.3557 83.5731 57.0943 83.7203 56.7753 83.7192C55.9393 83.7158 55.1009 83.7135 54.266 83.6724C53.3447 83.6279 52.5824 83.2124 52.1102 82.442C51.1855 80.9353 50.05 79.617 48.7395 78.4345C48.4539 78.1765 48.1821 77.9003 47.9207 77.6172C46.9441 76.558 46.8681 74.8995 47.9564 73.9704C48.9548 73.1189 49.0608 72.0118 49.3095 70.9103C49.5836 69.6913 49.8542 68.4711 50.0834 67.2441C50.1985 66.6278 50.2319 65.9931 50.2734 65.3654C50.4231 63.1099 50.8285 60.9002 51.4457 58.7258C51.4826 58.5968 51.5171 58.4667 51.5643 58.2944C51.4008 58.2944 51.2707 58.2932 51.1406 58.2944C49.0665 58.3149 46.9937 58.3389 44.9196 58.3548C44.7619 58.356 44.5914 58.3309 44.4463 58.2715C44.1296 58.1414 43.9477 57.7693 44.0133 57.4451C44.087 57.0765 44.3646 56.8219 44.7826 56.8071C45.3434 56.7877 45.9077 56.7957 46.4685 56.8174C46.761 56.8288 46.89 56.7226 46.9534 56.4418C47.2689 55.0402 47.3391 53.6226 47.2505 52.197C47.2044 51.4585 47.0812 50.7245 46.9914 49.9883C46.9603 49.7327 46.8474 49.6094 46.5526 49.6208C46.0044 49.6413 45.4528 49.6219 44.9035 49.606C44.3519 49.5888 44.0041 49.2772 44.0053 48.8184C44.0064 48.3413 44.3692 48.0411 44.9519 48.0468C45.477 48.0514 46.001 48.0708 46.5261 48.0719C46.6562 48.0719 46.7875 48.0251 46.9177 48C47.0927 48 47.2677 48 47.4428 48H47.4416ZM52.1044 49.8342C52.5144 52.1536 52.5087 54.4056 52.1171 56.6713C52.2069 56.6804 52.2806 56.6975 52.352 56.693C53.947 56.5857 55.5443 56.5058 57.1346 56.3551C58.4624 56.2295 59.7821 56.0161 61.1065 55.846C61.6788 55.7718 62.1153 56.2375 61.9909 56.7854C61.9183 57.1073 61.7111 57.3116 61.3852 57.3664C60.7575 57.4725 60.1288 57.5707 59.4988 57.6563C59.2777 57.686 59.1787 57.7533 59.1729 57.9999C59.1027 61.165 59.3756 64.2662 60.5261 67.2681C61.5291 69.8842 62.1648 72.611 62.7164 75.3538C62.8085 75.8115 62.7222 76.1722 62.3606 76.485C62.06 76.7441 61.7848 77.0351 61.5107 77.3239C61.05 77.809 61.0477 78.439 61.5118 78.923C61.8907 79.3168 62.2776 79.706 62.683 80.0735C63.8311 81.1191 64.8112 82.3004 65.6299 83.6153C66.1274 84.4143 66.7516 84.6609 67.7247 84.4177C67.3838 83.8756 67.0257 83.3562 66.724 82.8061C66.5501 82.4888 66.4107 82.1315 66.3543 81.7777C66.1205 80.3121 65.9328 78.8385 65.7129 77.3707C65.2442 74.233 64.8906 71.0827 64.8526 67.9118C64.7939 63.0951 64.81 58.2772 64.7927 53.4605C64.7927 53.2744 64.7927 53.0884 64.7824 52.9035C64.7156 51.8488 63.9267 50.9745 62.8776 50.817C62.273 50.7257 61.665 50.6549 61.0569 50.5956C59.0566 50.4027 57.0552 50.212 55.0537 50.0374C54.0863 49.9529 53.1144 49.9039 52.1044 49.8365V49.8342ZM55.3462 82.1235C54.9454 81.4889 54.5712 80.9227 54.2291 80.3383C54.1025 80.1203 54.0138 79.8647 53.9746 79.6158C53.7696 78.3089 53.575 76.9997 53.4 75.6883C53.3205 75.0913 53.1282 74.4453 53.2699 73.8928C54.3788 69.5954 55.5178 65.3026 57.2475 61.1958C57.5273 60.5304 57.6828 59.8729 57.6068 59.1515C57.5642 58.7406 57.5987 58.3217 57.5987 57.9143C56.1845 58.0079 54.8406 58.0912 53.4979 58.1973C53.3827 58.2065 53.218 58.3537 53.18 58.4701C52.5536 60.4197 52.1355 62.4137 51.934 64.45C51.8373 65.4213 51.835 66.4063 51.6691 67.3651C51.4158 68.825 51.0196 70.2609 50.7548 71.7196C50.5233 72.9934 50.225 74.1816 49.0953 75.0251C48.6047 75.3915 48.6589 76.0969 49.0769 76.5569C49.2773 76.7772 49.4903 76.9883 49.7103 77.1892C51.1302 78.487 52.4223 79.8886 53.3977 81.5562C53.5946 81.8929 53.924 82.0881 54.3213 82.1178C54.6299 82.1406 54.9431 82.1224 55.345 82.1224L55.3462 82.1235ZM48.5138 56.7694C49.0677 56.7694 49.5778 56.7557 50.088 56.7751C50.3678 56.7866 50.5106 56.6895 50.5371 56.4156C50.6362 55.3587 50.8158 54.3017 50.8135 53.2448C50.8112 52.1878 50.6327 51.1309 50.5141 50.0762C50.5014 49.9655 50.3863 49.7852 50.3068 49.7772C49.7322 49.7258 49.1541 49.711 48.5518 49.6836C48.9686 52.0862 48.9629 54.4113 48.5138 56.7706V56.7694Z" fill="black"/>
<path d="M44.0069 115.037V110.753C43.8015 110.846 43.5635 110.935 43.2929 111.019C43.0222 111.103 42.7282 111.173 42.4109 111.229C42.0935 111.276 41.7529 111.299 41.3889 111.299C40.2875 111.299 39.4755 111.061 38.9529 110.585C38.4302 110.1 38.1689 109.334 38.1689 108.289V105.097H39.1209V108.177C39.1209 108.952 39.3075 109.516 39.6809 109.871C40.0635 110.226 40.6795 110.403 41.5289 110.403C42.0049 110.403 42.4669 110.352 42.9149 110.249C43.3722 110.146 43.7362 110.02 44.0069 109.871V105.097H44.9589V115.037H44.0069ZM47.9206 118.089C47.7619 118.089 47.5986 118.061 47.4306 118.005C47.2719 117.958 47.1086 117.888 46.9406 117.795L47.2906 117.123C47.3933 117.179 47.4866 117.226 47.5706 117.263C47.664 117.3 47.7619 117.319 47.8646 117.319C48.1073 117.319 48.336 117.198 48.5506 116.955C48.7653 116.712 48.9706 116.358 49.1666 115.891L49.5306 114.981L46.2826 107.743H47.2906L49.9646 114.057L52.4286 107.743H53.3806L49.9086 116.185C49.722 116.624 49.526 116.983 49.3206 117.263C49.1153 117.543 48.8959 117.748 48.6626 117.879C48.4293 118.019 48.182 118.089 47.9206 118.089ZM53.8705 115.079V114.211C54.1225 114.211 54.3465 114.146 54.5425 114.015C54.7385 113.875 54.9112 113.642 55.0605 113.315C55.2192 112.988 55.3452 112.54 55.4385 111.971C55.5318 111.392 55.5925 110.66 55.6205 109.773L55.7045 107.743H60.4365V115.037H59.4845V108.597H56.5445L56.5165 109.857C56.4792 110.865 56.3998 111.71 56.2785 112.391C56.1572 113.063 55.9845 113.595 55.7605 113.987C55.5458 114.379 55.2798 114.659 54.9625 114.827C54.6452 114.995 54.2812 115.079 53.8705 115.079ZM62.3872 115.037V107.743H63.3392V110.865H64.4312L66.8812 107.743H67.9732L65.1872 111.285L68.3232 115.037H67.2032L64.4312 111.747H63.3392V115.037H62.3872ZM69.5206 115.037V107.757H70.4726V113.749L74.9106 107.743H75.7647V115.037H74.8126V109.143L70.4446 115.037H69.5206Z" fill="#605855"/>
<rect x="41" width="32" height="32" rx="16" fill="#333333"/>
<path d="M56.3803 15.988C56.3803 16.8 56.3196 17.5233 56.1983 18.158C56.0769 18.7927 55.8809 19.334 55.6103 19.782C55.3489 20.2207 55.0036 20.5567 54.5743 20.79C54.1543 21.0233 53.6456 21.14 53.0483 21.14C52.3016 21.14 51.6809 20.9347 51.1863 20.524C50.7009 20.1133 50.3369 19.5253 50.0943 18.76C49.8609 17.9853 49.7443 17.0613 49.7443 15.988C49.7443 14.9053 49.8516 13.9813 50.0663 13.216C50.2903 12.4507 50.6449 11.8673 51.1303 11.466C51.6156 11.0553 52.2549 10.85 53.0483 10.85C53.7949 10.85 54.4156 11.0553 54.9103 11.466C55.4049 11.8673 55.7736 12.4507 56.0163 13.216C56.2589 13.9813 56.3803 14.9053 56.3803 15.988ZM50.9763 15.988C50.9763 16.9027 51.0416 17.6633 51.1723 18.27C51.3123 18.8767 51.5316 19.334 51.8303 19.642C52.1383 19.9407 52.5443 20.09 53.0483 20.09C53.5523 20.09 53.9536 19.9407 54.2523 19.642C54.5603 19.3433 54.7843 18.8907 54.9243 18.284C55.0643 17.668 55.1343 16.9027 55.1343 15.988C55.1343 15.0733 55.0643 14.3173 54.9243 13.72C54.7843 13.1133 54.5603 12.6607 54.2523 12.362C53.9536 12.054 53.5523 11.9 53.0483 11.9C52.5443 11.9 52.1383 12.054 51.8303 12.362C51.5316 12.6607 51.3123 13.1133 51.1723 13.72C51.0416 14.3173 50.9763 15.0733 50.9763 15.988ZM63.832 13.342C63.832 13.79 63.748 14.1773 63.58 14.504C63.412 14.8307 63.1693 15.0967 62.852 15.302C62.544 15.5073 62.18 15.652 61.76 15.736V15.792C62.5627 15.8853 63.16 16.1373 63.552 16.548C63.944 16.9587 64.14 17.4953 64.14 18.158C64.14 18.7367 64.0047 19.2547 63.734 19.712C63.4633 20.16 63.0433 20.51 62.474 20.762C61.914 21.014 61.1907 21.14 60.304 21.14C59.7813 21.14 59.296 21.098 58.848 21.014C58.4 20.9393 57.9707 20.7993 57.56 20.594V19.446C57.98 19.6513 58.4327 19.8147 58.918 19.936C59.4033 20.048 59.87 20.104 60.318 20.104C61.214 20.104 61.858 19.9313 62.25 19.586C62.6513 19.2313 62.852 18.746 62.852 18.13C62.852 17.71 62.74 17.374 62.516 17.122C62.3013 16.8607 61.984 16.6693 61.564 16.548C61.144 16.4267 60.64 16.366 60.052 16.366H59.086V15.316H60.066C60.6167 15.316 61.074 15.2367 61.438 15.078C61.8113 14.9193 62.0913 14.7 62.278 14.42C62.474 14.1307 62.572 13.7993 62.572 13.426C62.572 12.9407 62.4087 12.5673 62.082 12.306C61.7553 12.0353 61.312 11.9 60.752 11.9C60.3973 11.9 60.0753 11.9373 59.786 12.012C59.4967 12.0773 59.226 12.1753 58.974 12.306C58.7313 12.4273 58.484 12.572 58.232 12.74L57.616 11.9C57.8587 11.7133 58.134 11.5407 58.442 11.382C58.7593 11.2233 59.1093 11.0973 59.492 11.004C59.8747 10.9107 60.29 10.864 60.738 10.864C61.7833 10.864 62.558 11.0973 63.062 11.564C63.5753 12.0307 63.832 12.6233 63.832 13.342Z" fill="white"/>
</svg>
