<svg width="114" height="140" viewBox="0 0 114 140" fill="none" xmlns="http://www.w3.org/2000/svg">
<rect y="16" width="114" height="124" rx="8" fill="white"/>
<path d="M62.4282 84.6426C62.4282 77.4036 67.5853 61.5711 82.7853 61.5711M51.571 84.6426C51.571 77.4036 46.4139 61.5711 31.2139 61.5711M52.9282 56.1426H61.071" stroke="black" stroke-width="1.5" stroke-linecap="round" stroke-linejoin="round"/>
<path d="M29.8564 56.1429V60.3771C29.8564 61.1969 29.9243 61.9351 30.1496 62.7223C32.4024 70.5937 40.4964 82.3819 50.2896 85.6281C51.1663 85.9186 51.9833 86 52.9062 86H61.0924C62.0153 86 62.8323 85.9186 63.7117 85.6281C73.5022 82.3791 81.5989 70.591 83.849 62.7196C84.0743 61.9351 84.1422 61.1996 84.1422 60.3799V56.1429C84.1422 52.3049 84.1422 50.3859 82.9479 49.1943C81.759 48 79.84 48 75.9993 48H37.9993C34.1613 48 32.2423 48 31.0507 49.1943C29.8564 50.3831 29.8564 52.3021 29.8564 56.1429Z" stroke="black" stroke-width="1.5" stroke-linecap="round" stroke-linejoin="round"/>
<path d="M45.4912 105.928H41.9492V115H40.9692V105.928H37.4272V105.06H45.4912V105.928ZM49.1103 115.14C48.5036 115.14 47.9576 114.981 47.4723 114.664C46.9963 114.347 46.6183 113.955 46.3383 113.488V117.982H45.3863V107.706H46.2403V109.12C46.5296 108.663 46.917 108.294 47.4023 108.014C47.8876 107.725 48.4056 107.58 48.9563 107.58C49.4603 107.58 49.9223 107.687 50.3423 107.902C50.7623 108.107 51.1263 108.387 51.4343 108.742C51.7423 109.097 51.9803 109.503 52.1483 109.96C52.3256 110.408 52.4143 110.875 52.4143 111.36C52.4143 112.041 52.2743 112.671 51.9943 113.25C51.7236 113.819 51.341 114.277 50.8463 114.622C50.3516 114.967 49.773 115.14 49.1103 115.14ZM48.8443 114.3C49.2456 114.3 49.605 114.221 49.9223 114.062C50.2396 113.894 50.5103 113.67 50.7343 113.39C50.9676 113.11 51.145 112.797 51.2663 112.452C51.3876 112.097 51.4483 111.733 51.4483 111.36C51.4483 110.968 51.3783 110.595 51.2383 110.24C51.1076 109.885 50.9163 109.573 50.6643 109.302C50.4123 109.031 50.123 108.817 49.7963 108.658C49.4696 108.499 49.115 108.42 48.7323 108.42C48.4896 108.42 48.2376 108.467 47.9763 108.56C47.715 108.653 47.463 108.789 47.2203 108.966C46.987 109.134 46.791 109.325 46.6323 109.54C46.4736 109.755 46.3756 109.983 46.3383 110.226V112.466C46.4876 112.811 46.6883 113.124 46.9403 113.404C47.1923 113.675 47.4816 113.894 47.8083 114.062C48.1443 114.221 48.4896 114.3 48.8443 114.3ZM54.4388 118.052C54.2802 118.052 54.1168 118.024 53.9488 117.968C53.7902 117.921 53.6268 117.851 53.4588 117.758L53.8088 117.086C53.9115 117.142 54.0048 117.189 54.0888 117.226C54.1822 117.263 54.2802 117.282 54.3828 117.282C54.6255 117.282 54.8542 117.161 55.0688 116.918C55.2835 116.675 55.4888 116.321 55.6848 115.854L56.0488 114.944L52.8008 107.706H53.8088L56.4828 114.02L58.9468 107.706H59.8988L56.4268 116.148C56.2402 116.587 56.0442 116.946 55.8388 117.226C55.6335 117.506 55.4142 117.711 55.1808 117.842C54.9475 117.982 54.7002 118.052 54.4388 118.052ZM63.9929 115.14C63.4609 115.14 62.9709 115.042 62.5229 114.846C62.0843 114.641 61.6969 114.361 61.3609 114.006C61.0343 113.651 60.7776 113.245 60.5909 112.788C60.4136 112.331 60.3249 111.845 60.3249 111.332C60.3249 110.641 60.4789 110.011 60.7869 109.442C61.0949 108.873 61.5243 108.42 62.0749 108.084C62.6256 107.748 63.2603 107.58 63.9789 107.58C64.6603 107.58 65.2623 107.739 65.7849 108.056C66.3076 108.364 66.6949 108.784 66.9469 109.316L66.0229 109.61C65.8176 109.237 65.5283 108.947 65.1549 108.742C64.7909 108.527 64.3849 108.42 63.9369 108.42C63.4516 108.42 63.0083 108.546 62.6069 108.798C62.2056 109.05 61.8836 109.395 61.6409 109.834C61.4076 110.273 61.2909 110.772 61.2909 111.332C61.2909 111.883 61.4123 112.382 61.6549 112.83C61.8976 113.278 62.2196 113.637 62.6209 113.908C63.0223 114.169 63.4656 114.3 63.9509 114.3C64.2683 114.3 64.5716 114.244 64.8609 114.132C65.1596 114.02 65.4163 113.871 65.6309 113.684C65.8549 113.488 66.0043 113.278 66.0789 113.054L67.0169 113.334C66.8863 113.679 66.6669 113.992 66.3589 114.272C66.0603 114.543 65.7056 114.757 65.2949 114.916C64.8936 115.065 64.4596 115.14 63.9929 115.14ZM68.3585 115V107.706H69.3105V110.282H70.9625C71.7932 110.282 72.4185 110.497 72.8385 110.926C73.2679 111.346 73.4825 111.901 73.4825 112.592C73.4825 113.04 73.3892 113.446 73.2025 113.81C73.0159 114.174 72.7405 114.463 72.3765 114.678C72.0219 114.893 71.5739 115 71.0325 115H68.3585ZM69.3105 114.244H70.9065C71.2892 114.244 71.5972 114.169 71.8305 114.02C72.0639 113.861 72.2365 113.661 72.3485 113.418C72.4605 113.166 72.5165 112.895 72.5165 112.606C72.5165 112.326 72.4652 112.069 72.3625 111.836C72.2692 111.593 72.1012 111.402 71.8585 111.262C71.6252 111.113 71.2985 111.038 70.8785 111.038H69.3105V114.244ZM74.8125 115V107.72H75.7645V115H74.8125Z" fill="#605855"/>
<rect x="41" width="32" height="32" rx="16" fill="#333333"/>
<path d="M56.3803 15.988C56.3803 16.8 56.3196 17.5233 56.1983 18.158C56.0769 18.7927 55.8809 19.334 55.6103 19.782C55.3489 20.2207 55.0036 20.5567 54.5743 20.79C54.1543 21.0233 53.6456 21.14 53.0483 21.14C52.3016 21.14 51.6809 20.9347 51.1863 20.524C50.7009 20.1133 50.3369 19.5253 50.0943 18.76C49.8609 17.9853 49.7443 17.0613 49.7443 15.988C49.7443 14.9053 49.8516 13.9813 50.0663 13.216C50.2903 12.4507 50.6449 11.8673 51.1303 11.466C51.6156 11.0553 52.2549 10.85 53.0483 10.85C53.7949 10.85 54.4156 11.0553 54.9103 11.466C55.4049 11.8673 55.7736 12.4507 56.0163 13.216C56.2589 13.9813 56.3803 14.9053 56.3803 15.988ZM50.9763 15.988C50.9763 16.9027 51.0416 17.6633 51.1723 18.27C51.3123 18.8767 51.5316 19.334 51.8303 19.642C52.1383 19.9407 52.5443 20.09 53.0483 20.09C53.5523 20.09 53.9536 19.9407 54.2523 19.642C54.5603 19.3433 54.7843 18.8907 54.9243 18.284C55.0643 17.668 55.1343 16.9027 55.1343 15.988C55.1343 15.0733 55.0643 14.3173 54.9243 13.72C54.7843 13.1133 54.5603 12.6607 54.2523 12.362C53.9536 12.054 53.5523 11.9 53.0483 11.9C52.5443 11.9 52.1383 12.054 51.8303 12.362C51.5316 12.6607 51.3123 13.1133 51.1723 13.72C51.0416 14.3173 50.9763 15.0733 50.9763 15.988ZM64.21 21H57.602V19.978L60.22 17.332C60.724 16.828 61.1487 16.38 61.494 15.988C61.8393 15.596 62.1007 15.2133 62.278 14.84C62.4553 14.4573 62.544 14.042 62.544 13.594C62.544 13.0433 62.3807 12.628 62.054 12.348C61.7273 12.0587 61.3027 11.914 60.78 11.914C60.2947 11.914 59.8653 11.998 59.492 12.166C59.128 12.334 58.7547 12.5673 58.372 12.866L57.714 12.04C57.9753 11.816 58.26 11.6153 58.568 11.438C58.8853 11.2607 59.226 11.1207 59.59 11.018C59.9633 10.9153 60.36 10.864 60.78 10.864C61.4053 10.864 61.942 10.9713 62.39 11.186C62.838 11.4007 63.1833 11.7087 63.426 12.11C63.678 12.502 63.804 12.9733 63.804 13.524C63.804 13.916 63.7433 14.2893 63.622 14.644C63.5007 14.9893 63.328 15.33 63.104 15.666C62.88 16.002 62.6093 16.3427 62.292 16.688C61.9747 17.0333 61.6247 17.3927 61.242 17.766L59.156 19.824V19.88H64.21V21Z" fill="white"/>
</svg>
