<svg width="24" height="24" viewBox="0 0 24 24" fill="none" xmlns="http://www.w3.org/2000/svg">
<g clip-path="url(#clip0_110_3661)">
<path d="M9.00008 6.75C9.00008 5.95435 9.31615 5.19129 9.87876 4.62868C10.4414 4.06607 11.2044 3.75 12.0001 3.75C12.7957 3.75 13.5588 4.06607 14.1214 4.62868C14.684 5.19129 15.0001 5.95435 15.0001 6.75L1.80196 16.65C1.67615 16.7444 1.58319 16.8759 1.53621 17.0259C1.48923 17.176 1.4906 17.337 1.54014 17.4863C1.58969 17.6355 1.68488 17.7654 1.81228 17.8576C1.93968 17.9498 2.09283 17.9996 2.25008 18H21.7501C21.9074 17.9998 22.0607 17.9501 22.1882 17.858C22.3158 17.7659 22.4111 17.636 22.4608 17.4867C22.5105 17.3374 22.5119 17.1763 22.465 17.0262C22.418 16.876 22.325 16.7444 22.1991 16.65L12.0001 9" stroke="#333333" stroke-linecap="round" stroke-linejoin="round"/>
</g>
<defs>
<clipPath id="clip0_110_3661">
<rect width="24" height="24" fill="white"/>
</clipPath>
</defs>
</svg>
