<svg width="24" height="24" viewBox="0 0 24 24" fill="none" xmlns="http://www.w3.org/2000/svg">
<path d="M3.99997 8.00048L3.64597 8.35448L3.29297 8.00048L3.64597 7.64648L3.99997 8.00048ZM8.99997 19.5005C8.86736 19.5005 8.74018 19.4478 8.64641 19.354C8.55265 19.2603 8.49997 19.1331 8.49997 19.0005C8.49997 18.8679 8.55265 18.7407 8.64641 18.6469C8.74018 18.5532 8.86736 18.5005 8.99997 18.5005V19.5005ZM8.64597 13.3545L3.64597 8.35448L4.35397 7.64648L9.35397 12.6465L8.64597 13.3545ZM3.64597 7.64648L8.64597 2.64648L9.35397 3.35448L4.35397 8.35448L3.64597 7.64648ZM3.99997 7.50048H14.5V8.50048H3.99997V7.50048ZM14.5 19.5005H8.99997V18.5005H14.5V19.5005ZM20.5 13.5005C20.5 15.0918 19.8678 16.6179 18.7426 17.7431C17.6174 18.8683 16.0913 19.5005 14.5 19.5005V18.5005C15.8261 18.5005 17.0978 17.9737 18.0355 17.036C18.9732 16.0983 19.5 14.8266 19.5 13.5005H20.5ZM14.5 7.50048C16.0913 7.50048 17.6174 8.13263 18.7426 9.25784C19.8678 10.3831 20.5 11.9092 20.5 13.5005H19.5C19.5 12.1744 18.9732 10.9026 18.0355 9.96495C17.0978 9.02727 15.8261 8.50048 14.5 8.50048V7.50048Z" fill="black"/>
</svg>
