<svg width="24" height="24" viewBox="0 0 24 24" fill="none" xmlns="http://www.w3.org/2000/svg">
<path d="M12.998 21.671L3 11.692V3H11.692L21.685 13.004L12.998 21.671ZM12.998 20.25L20.264 12.985L11.266 4.019H4V11.285L12.998 20.25ZM6.55 7.558C6.83067 7.558 7.069 7.46067 7.265 7.266C7.461 7.07133 7.55867 6.83533 7.558 6.558C7.558 6.27467 7.46067 6.034 7.266 5.836C7.07133 5.638 6.83533 5.539 6.558 5.539C6.27467 5.539 6.034 5.63733 5.836 5.834C5.638 6.03067 5.539 6.26933 5.539 6.55C5.539 6.83067 5.63733 7.069 5.834 7.265C6.03067 7.461 6.26933 7.55867 6.55 7.558ZM13 16.923L16.039 13.769C16.1837 13.6243 16.294 13.4557 16.37 13.263C16.446 13.071 16.484 12.859 16.484 12.627C16.484 12.201 16.333 11.8297 16.031 11.513C15.7283 11.1963 15.363 11.038 14.935 11.038C14.609 11.038 14.2877 11.1233 13.971 11.294C13.6543 11.4647 13.3307 11.7667 13 12.2C12.6533 11.7593 12.326 11.4557 12.018 11.289C11.71 11.1223 11.3923 11.039 11.065 11.039C10.637 11.039 10.2717 11.1973 9.969 11.514C9.667 11.8307 9.516 12.2017 9.516 12.627C9.516 12.859 9.554 13.0713 9.63 13.264C9.706 13.456 9.81633 13.6243 9.961 13.769L13 16.923Z" fill="#333333"/>
</svg>
