<svg width="24" height="24" viewBox="0 0 24 24" fill="none" xmlns="http://www.w3.org/2000/svg">
<g clip-path="url(#clip0_110_3820)">
<path d="M12 0C18.6274 0 24 5.37258 24 12C24 18.6274 18.6274 24 12 24C5.37258 24 0 18.6274 0 12C0 5.37258 5.37258 0 12 0ZM12.1123 5.01758C8.318 5.01758 5.11523 7.96695 5.11523 11.8867C5.11529 13.5274 5.41734 14.6599 5.68359 15.6768C5.90718 16.5023 6.10449 17.2594 6.10449 18.1543C6.20027 19.3458 8.3866 18.6493 9.07715 17.7578C10.1687 18.5503 10.7971 18.748 12.1484 18.748C15.8838 18.7279 18.8974 15.6745 18.8848 11.9229C18.8848 8.11216 15.9097 5.01774 12.1123 5.01758ZM12.2041 8.40527V8.40918C14.1189 8.51935 15.5932 10.1494 15.5186 12.0742C15.39 13.9951 13.7535 15.4597 11.8389 15.3672C11.2397 15.3189 10.6636 15.1126 10.1689 14.7695C9.86991 15.0698 9.39011 15.4588 9.19922 15.4131C8.80138 15.3074 8.33462 13.276 8.59766 11.6084C8.91675 9.59433 10.3564 8.30952 12.2041 8.40527Z" fill="#333333"/>
</g>
<defs>
<clipPath id="clip0_110_3820">
<rect width="24" height="24" rx="12" fill="white"/>
</clipPath>
</defs>
</svg>
