<svg width="24" height="24" viewBox="0 0 24 24" fill="none" xmlns="http://www.w3.org/2000/svg">
<rect x="2.5" y="2.5" width="19" height="19" stroke="#333333"/>
<path d="M9.4 10.592C8.96267 10.592 8.56267 10.4907 8.2 10.288C7.83733 10.0853 7.544 9.808 7.32 9.456C7.10667 9.104 7 8.72 7 8.304C7 7.87733 7.10667 7.488 7.32 7.136C7.544 6.784 7.83733 6.50667 8.2 6.304C8.56267 6.10133 8.96267 6 9.4 6C9.83733 6 10.2373 6.10133 10.6 6.304C10.9627 6.50667 11.2507 6.784 11.464 7.136C11.6773 7.488 11.784 7.872 11.784 8.288C11.784 8.71467 11.6773 9.104 11.464 9.456C11.2507 9.808 10.9627 10.0853 10.6 10.288C10.2373 10.4907 9.83733 10.592 9.4 10.592ZM9.4 9.968C9.688 9.968 9.94933 9.89333 10.184 9.744C10.4293 9.584 10.6213 9.376 10.76 9.12C10.8987 8.864 10.968 8.592 10.968 8.304C10.968 7.99467 10.8933 7.712 10.744 7.456C10.5947 7.2 10.3973 7.00267 10.152 6.864C9.91733 6.71467 9.66667 6.64 9.4 6.64C9.10133 6.64 8.83467 6.72 8.6 6.88C8.36533 7.02933 8.17333 7.232 8.024 7.488C7.88533 7.73333 7.816 8 7.816 8.288C7.816 8.59733 7.88533 8.88 8.024 9.136C8.17333 9.38133 8.36533 9.584 8.6 9.744C8.84533 9.89333 9.112 9.968 9.4 9.968ZM14.76 17.68C14.3227 17.68 13.9227 17.5787 13.56 17.376C13.1973 17.1733 12.9093 16.896 12.696 16.544C12.4827 16.192 12.376 15.8027 12.376 15.376C12.376 14.9493 12.4827 14.5653 12.696 14.224C12.9093 13.872 13.1973 13.5947 13.56 13.392C13.9227 13.1893 14.3227 13.088 14.76 13.088C15.208 13.088 15.6133 13.1893 15.976 13.392C16.3387 13.5947 16.6267 13.872 16.84 14.224C17.0533 14.5653 17.16 14.9493 17.16 15.376C17.16 15.8027 17.0533 16.192 16.84 16.544C16.6267 16.8853 16.3387 17.1627 15.976 17.376C15.6133 17.5787 15.208 17.68 14.76 17.68ZM14.76 17.04C15.0587 17.04 15.3253 16.9653 15.56 16.816C15.8053 16.656 15.992 16.4533 16.12 16.208C16.2587 15.952 16.328 15.68 16.328 15.392C16.328 15.0827 16.2533 14.8 16.104 14.544C15.9653 14.288 15.7733 14.0853 15.528 13.936C15.2933 13.7867 15.0373 13.712 14.76 13.712C14.472 13.712 14.2053 13.792 13.96 13.952C13.7253 14.1013 13.5387 14.304 13.4 14.56C13.2613 14.816 13.192 15.088 13.192 15.376C13.192 15.6853 13.2613 15.968 13.4 16.224C13.5493 16.4693 13.7413 16.6667 13.976 16.816C14.2213 16.9653 14.4827 17.04 14.76 17.04ZM7.384 17.088L11.864 11.648L16.2 6.096L16.76 6.576L12.312 12.016L7.944 17.584L7.384 17.088Z" fill="#333333"/>
</svg>
