<svg width="24" height="24" viewBox="0 0 24 24" fill="none" xmlns="http://www.w3.org/2000/svg">
<g clip-path="url(#clip0_177_1206)">
<path fill-rule="evenodd" clip-rule="evenodd" d="M12 0C18.6274 0 24 5.37258 24 12C24 18.6274 18.6274 24 12 24C5.37258 24 0 18.6274 0 12C0 5.37258 5.37258 0 12 0ZM17.1806 7.22402C16.7236 7.23199 16.0224 7.47302 12.6483 8.85908C11.4666 9.34456 9.10453 10.3493 5.5626 11.8734C4.98753 12.0993 4.68622 12.3204 4.65879 12.5364C4.60625 12.9512 5.21105 13.0803 5.97188 13.3245C6.59217 13.5237 7.4265 13.7567 7.86035 13.766C8.25387 13.7744 8.69323 13.6141 9.17813 13.2853C12.4872 11.0791 14.1955 9.96408 14.303 9.93984C14.3787 9.92288 14.4836 9.9015 14.5547 9.96387C14.6256 10.0262 14.6187 10.1442 14.6112 10.176C14.5511 10.4293 11.4421 13.2221 11.2632 13.4057C10.5796 14.1069 9.8021 14.536 11.0016 15.3167C12.0396 15.9923 12.6436 16.4235 13.713 17.1158C14.3964 17.5583 14.9322 18.0829 15.6378 18.0188C15.9625 17.9892 16.2978 17.6875 16.4681 16.7883C16.8706 14.663 17.6619 10.0584 17.8447 8.16094C17.8607 7.99474 17.8404 7.78209 17.8242 7.68867C17.808 7.59528 17.7743 7.46199 17.6514 7.36348C17.5058 7.24689 17.2811 7.22228 17.1806 7.22402Z" fill="white"/>
</g>
<defs>
<clipPath id="clip0_177_1206">
<rect width="24" height="24" fill="white"/>
</clipPath>
</defs>
</svg>
