<svg width="24" height="24" viewBox="0 0 24 24" fill="none" xmlns="http://www.w3.org/2000/svg">
<g clip-path="url(#clip0_110_3619)">
<path d="M5.9812 18.6914C6.54549 17.5799 7.40654 16.6464 8.4689 15.9943C9.53126 15.3422 10.7534 14.9971 12 14.9971C13.2465 14.9971 14.4686 15.3422 15.531 15.9943C16.5934 16.6464 17.4544 17.5799 18.0187 18.6914" stroke="#333333" stroke-linecap="round" stroke-linejoin="round"/>
<path d="M12 21C16.9706 21 21 16.9706 21 12C21 7.02944 16.9706 3 12 3C7.02944 3 3 7.02944 3 12C3 16.9706 7.02944 21 12 21Z" stroke="#333333" stroke-linecap="round" stroke-linejoin="round"/>
<path d="M12 15C14.0711 15 15.75 13.3211 15.75 11.25C15.75 9.17893 14.0711 7.5 12 7.5C9.92893 7.5 8.25 9.17893 8.25 11.25C8.25 13.3211 9.92893 15 12 15Z" stroke="#333333" stroke-linecap="round" stroke-linejoin="round"/>
</g>
<defs>
<clipPath id="clip0_110_3619">
<rect width="24" height="24" fill="white"/>
</clipPath>
</defs>
</svg>
